# xmcd CD database file
# Copyright (C) 1993-1998 Ti Kan
#
# Track frame offsets:
#  150
#  4533
#  20235
#  41200
#  60318
#  82908
#  101970
#  123213
#  138668
#  161055
#  176965
#  195798
#  219853
#  242845
#  263750
#  285245
#  309948
#  310305
#  310683
#  311043
#  311418
#  311798
#  312178
#  312548
#  312925
#  313295
#  313673
#  314050
#  314418
#  314803
#  315168
#  315540
#  315923
#  316308
#  316668
#  317053
#  317420
#  317808
#  318175
#  318558
#  318928
#  319290
#  319685
#  320050
#  320425
#  320803
#  321170
#  321555
#  321925
#  322300
#  322678
#  323058
#  323420
#  323800
#  324180
#  324558
#  324930
#  325300
#  325680
#  326183
#  333215
#
# Disc length: 4471 seconds
#
# Revision: 1
# Processed by: cddbd v1.4b41PL1 Copyright (c) Steve Scherf et al.
# Submitted via: CDWizzard Release:4.35
#
DISCID=7611753d
DTITLE=Chino XL - Here To Save You All
DYEAR=1900
DGENRE=
TTITLE0=Here To Save You All
TTITLE1=Deliver
TTITLE2=No Complex
TTITLE3=Partner To Swing
TTITLE4=It's All Bad
TTITLE5=Freestyle Rhymes
TTITLE6=Riiiot!
TTITLE7=Waiting To Exhale
TTITLE8=What Am I?
TTITLE9=Feelin' Evil Again
TTITLE10=Thousands
TTITLE11=Kreep
TTITLE12=Many DIfferent Ways
TTITLE13=The Shabba-Doo Conspiracy
TTITLE14=Ghetto Vampire
TTITLE15=Rise
TTITLE16=
TTITLE17=
TTITLE18=
TTITLE19=
TTITLE20=
TTITLE21=
TTITLE22=
TTITLE23=
TTITLE24=
TTITLE25=
TTITLE26=
TTITLE27=
TTITLE28=
TTITLE29=
TTITLE30=
TTITLE31=
TTITLE32=
TTITLE33=
TTITLE34=
TTITLE35=
TTITLE36=
TTITLE37=
TTITLE38=
TTITLE39=
TTITLE40=
TTITLE41=
TTITLE42=
TTITLE43=
TTITLE44=
TTITLE45=
TTITLE46=
TTITLE47=
TTITLE48=
TTITLE49=
TTITLE50=
TTITLE51=
TTITLE52=
TTITLE53=
TTITLE54=
TTITLE55=
TTITLE56=
TTITLE57=
TTITLE58=
TTITLE59=???
TTITLE60=
EXTD=submitted by hairen
EXTT0=
EXTT1=
EXTT2=
EXTT3=
EXTT4=
EXTT5=
EXTT6=
EXTT7=
EXTT8=
EXTT9=
EXTT10=
EXTT11=
EXTT12=
EXTT13=
EXTT14=
EXTT15=
EXTT16=
EXTT17=
EXTT18=
EXTT19=
EXTT20=
EXTT21=
EXTT22=
EXTT23=
EXTT24=
EXTT25=
EXTT26=
EXTT27=
EXTT28=
EXTT29=
EXTT30=
EXTT31=
EXTT32=
EXTT33=
EXTT34=
EXTT35=
EXTT36=
EXTT37=
EXTT38=
EXTT39=
EXTT40=
EXTT41=
EXTT42=
EXTT43=
EXTT44=
EXTT45=
EXTT46=
EXTT47=
EXTT48=
EXTT49=
EXTT50=
EXTT51=
EXTT52=
EXTT53=
EXTT54=
EXTT55=
EXTT56=
EXTT57=
EXTT58=
EXTT59=
EXTT60=
PLAYORDER=
